<svg xmlns="http://www.w3.org/2000/svg" viewBox="0 0 122.55 122.55"><defs><style>.cls-1{fill:none;stroke:#fff;stroke-miterlimit:10;stroke-width:4px;}</style></defs><title>cose-x</title><g id="Layer_2" data-name="Layer 2"><g id="solar_overlay" data-name="solar overlay"><path class="cls-1" d="M116.43,96.57,81.14,61.27,116.43,26a14,14,0,0,0,0-19.87h0a14.05,14.05,0,0,0-19.86,0l-35.3,35.3L26,6.11A14.05,14.05,0,0,0,6.11,26l35.3,35.29L6.11,96.57a14.05,14.05,0,0,0,0,19.86h0a14,14,0,0,0,19.87,0L61.27,81.14l35.3,35.29a14,14,0,0,0,19.86-19.86Z"/></g></g></svg>