<svg xmlns="http://www.w3.org/2000/svg" viewBox="0 0 74.52 101.5"><defs><style>.cls-1{fill:#fff;}</style></defs><title>pledge-button</title><g id="Layer_2" data-name="Layer 2"><g id="Layer_1-2" data-name="Layer 1"><path class="cls-1" d="M72.46,46.93h0a4.68,4.68,0,0,0-3.54-.75,4.73,4.73,0,0,0-3,2l-3.14,4.6V11.26A2.56,2.56,0,0,0,60.19,8.7H50.65a4.32,4.32,0,0,0-4.21-3.38H44.62a1.55,1.55,0,0,1-1.55-1.55v-1A2.79,2.79,0,0,0,40.29,0H22.46a2.79,2.79,0,0,0-2.78,2.78v1a1.55,1.55,0,0,1-1.54,1.55H16.31A4.32,4.32,0,0,0,12.1,8.7H2.56A2.56,2.56,0,0,0,0,11.26V89.88a2.56,2.56,0,0,0,2.56,2.56H37l-2.34,6.31a2.05,2.05,0,0,0,1.92,2.75,2,2,0,0,0,1.35-.52l8.47-7.52.7-1h13.1a2.56,2.56,0,0,0,2.56-2.56V69.52L71.3,57h0l2.4-3.51A4.74,4.74,0,0,0,72.46,46.93ZM62.75,64.49l-2.84,4.15-14.32,21-1.34,2-1,.87-4.85,4.31L40,92.44l1.05-2.84.06-.16,18.79-27.5,2.84-4.15,1.48-2.17,1.56,1.07,1.56,1.06Zm4.64-10.15-1.56-1.06,2.4-3.52a1.89,1.89,0,0,1,2.63-.49h0a1.89,1.89,0,0,1,.49,2.63L69,55.41Zm-38.3-47a2.29,2.29,0,1,1,4.57,0,2.29,2.29,0,0,1-2.28,2.29,2.28,2.28,0,0,1-1.85-.94A2.25,2.25,0,0,1,29.09,7.35ZM2.84,89.6V11.54H12v5.55H50.75V11.54h9.16V56.91l-6.69,9.8L38.59,88.13,38,89.6Zm57.07,0H49L59.91,73.67Z"/><path class="cls-1" d="M41.55,45.26,30.85,57.61a1,1,0,0,1-.79.36,1.07,1.07,0,0,1-.65-.22l-5.76-4.53a1,1,0,0,1-.18-1.47,1,1,0,0,1,.7-.39h.13a1.05,1.05,0,0,1,.64.22l5,3.91L40,43.89a1,1,0,0,1,1.58,1.37Z"/><path class="cls-1" d="M50.6,50.75A19.23,19.23,0,1,0,31.38,70,19.25,19.25,0,0,0,50.6,50.75ZM31.38,67.14A16.39,16.39,0,1,1,47.77,50.75,16.41,16.41,0,0,1,31.38,67.14Z"/></g></g></svg>