<svg xmlns="http://www.w3.org/2000/svg" viewBox="0 0 155.99 73.31"><defs><style>.cls-1{fill:#fff;}.cls-2{fill:none;stroke:#fff;stroke-linecap:round;stroke-linejoin:round;stroke-width:1.97px;}</style></defs><title>water-button</title><g id="Layer_2" data-name="Layer 2"><g id="Layer_1-2" data-name="Layer 1"><path class="cls-1" d="M64.41,52.7a20.61,20.61,0,0,1-41.22,0c0-11.38,16.49-42,20.61-42S64.41,41.32,64.41,52.7Z"/><path class="cls-1" d="M19.67,44.06A9.84,9.84,0,1,1,0,44.06C0,38.63,7.87,24,9.84,24S19.67,38.63,19.67,44.06Z"/><path class="cls-1" d="M29.68,15.47a7.59,7.59,0,0,1-15.17,0C14.51,11.28,20.58,0,22.09,0S29.68,11.28,29.68,15.47Z"/><path class="cls-2" d="M76.21,40.33a13.13,13.13,0,0,0,12-7.72,1.27,1.27,0,0,1,2.33,0,13.13,13.13,0,0,0,23.93,0,1.27,1.27,0,0,1,2.33,0,13.14,13.14,0,0,0,23.94,0,1.27,1.27,0,0,1,2.32,0,13.14,13.14,0,0,0,12,7.72"/><path class="cls-2" d="M76.21,58.93a13.13,13.13,0,0,0,12-7.72,1.28,1.28,0,0,1,2.33,0,13.13,13.13,0,0,0,23.93,0,1.28,1.28,0,0,1,2.33,0,13.14,13.14,0,0,0,23.94,0,1.27,1.27,0,0,1,2.32,0,13.14,13.14,0,0,0,12,7.72"/></g></g></svg>