<svg xmlns="http://www.w3.org/2000/svg" viewBox="0 0 89.85 100.32"><defs><style>.cls-1{fill:#fff;}</style></defs><title>emergy-button</title><g id="Layer_2" data-name="Layer 2"><g id="Layer_1-2" data-name="Layer 1"><path class="cls-1" d="M33.9,70.93,56.81,39.44a.73.73,0,0,0-.58-1.15H52.7a.71.71,0,0,1-.68-.94l2.34-7a.73.73,0,0,0-.69-.95H37.48a.73.73,0,0,0-.71.6L34,46.36a.72.72,0,0,0,.71.83h4.17a.72.72,0,0,1,.69.9Z"/><path class="cls-1" d="M13.55,73.54A2.55,2.55,0,0,0,13.93,70,39.85,39.85,0,1,1,46,84.75V82.42c0-2.87-2.85-5.07-9-6.92a45.26,45.26,0,0,0-10.52-2h-6.2a4.71,4.71,0,0,0-4.71,4.7v2.53H9.53a2.54,2.54,0,0,0,0,5.08h6.05V88H9.53a2.55,2.55,0,0,0,0,5.09h6.05v2.52a4.71,4.71,0,0,0,4.71,4.71h6.2a44.86,44.86,0,0,0,10.52-2c6.12-1.84,9-4,9-6.92V89.84A44.94,44.94,0,0,0,89.85,44.93,44.92,44.92,0,0,0,13.16,13.16a44.92,44.92,0,0,0-3.18,60A2.54,2.54,0,0,0,13.55,73.54ZM40.9,91.08c-.48.47-2.22,1.55-6.37,2.7a39.92,39.92,0,0,1-8,1.46H20.66V78.62h5.83a39.92,39.92,0,0,1,8,1.46c4.15,1.14,5.89,2.23,6.37,2.69Z"/></g></g></svg>