<svg xmlns="http://www.w3.org/2000/svg" viewBox="0 0 114.34 91.88"><defs><style>.cls-1{fill:#fff;}</style></defs><title>video-button</title><g id="Layer_2" data-name="Layer 2"><g id="Layer_1-2" data-name="Layer 1"><g id="_Group_" data-name="&lt;Group&gt;"><g id="_Group_2" data-name="&lt;Group&gt;"><path id="_Compound_Path_" data-name="&lt;Compound Path&gt;" class="cls-1" d="M1.54,33.91V82.34a9.54,9.54,0,0,0,9.53,9.54h93.74a9.54,9.54,0,0,0,9.53-9.54V33.91Zm56.4,49.53A20.55,20.55,0,1,1,78.47,62.9,20.55,20.55,0,0,1,57.94,83.44Z"/><polygon id="_Path_" data-name="&lt;Path&gt;" class="cls-1" points="52.92 27.04 64.04 4.16 54.41 5.26 43.29 28.13 52.92 27.04"/><polygon id="_Path_2" data-name="&lt;Path&gt;" class="cls-1" points="71.23 24.96 82.35 2.08 72.72 3.17 61.6 26.05 71.23 24.96"/><path id="_Path_3" data-name="&lt;Path&gt;" class="cls-1" d="M8.46,10.48A9.55,9.55,0,0,0,.06,21L.8,27.5,9.11,10.41Z"/><path id="_Path_4" data-name="&lt;Path&gt;" class="cls-1" d="M113.49,20.15,112.14,8.28a9.47,9.47,0,0,0-4-6.71L98.22,21.89Z"/><polygon id="_Path_5" data-name="&lt;Path&gt;" class="cls-1" points="89.54 22.88 100.66 0 91.03 1.09 79.91 23.97 89.54 22.88"/><polygon id="_Path_6" data-name="&lt;Path&gt;" class="cls-1" points="16.29 31.21 27.41 8.33 17.79 9.42 6.67 32.3 16.29 31.21"/><polygon id="_Path_7" data-name="&lt;Path&gt;" class="cls-1" points="34.61 29.12 45.73 6.24 36.1 7.34 24.98 30.22 34.61 29.12"/><polygon id="_Path_8" data-name="&lt;Path&gt;" class="cls-1" points="53.38 54.09 53.38 62.9 53.38 71.7 61.01 67.29 68.63 62.9 61.01 58.5 53.38 54.09"/></g></g></g></g></svg>