<svg xmlns="http://www.w3.org/2000/svg" viewBox="0 0 87.46 96.82"><defs><style>.cls-1{fill:#fff;}</style></defs><title>transit-button</title><g id="Layer_2" data-name="Layer 2"><g id="Layer_1-2" data-name="Layer 1"><path class="cls-1" d="M43.73,57.17a8.41,8.41,0,0,0-7,3.74h14A8.4,8.4,0,0,0,43.73,57.17Z"/><path class="cls-1" d="M86.16,34.34,81.47,10.89a8.42,8.42,0,0,0-5.94-6.44h0a115.91,115.91,0,0,0-63.6,0h0A8.42,8.42,0,0,0,6,10.89L1.3,34.34A67.45,67.45,0,0,0,0,47.48V82.92a3.41,3.41,0,0,0,3.41,3.41H10.5v5.21a5.27,5.27,0,0,0,5.28,5.28H19.2a5.28,5.28,0,0,0,5.29-5.28V86.33H63v5.21a5.28,5.28,0,0,0,5.29,5.28h3.42A5.28,5.28,0,0,0,77,91.54V86.33h7.08a3.41,3.41,0,0,0,3.41-3.41V47.48A66.69,66.69,0,0,0,86.16,34.34Zm-56.42-25h28a1.75,1.75,0,0,1,0,3.5h-28a1.75,1.75,0,1,1,0-3.5Zm-14,64.14a7,7,0,1,1,7-7A7,7,0,0,1,15.74,73.5Zm42-7.93H54a10,10,0,0,1-.27,2.33h4v2.33H52.87a10.26,10.26,0,0,1-18.28,0H29.74V67.9H51.79a8.15,8.15,0,0,0,.34-2.33H29.74V60.91h4.85a10.26,10.26,0,0,1,18.28,0h4.85ZM14.15,44.35a2.76,2.76,0,0,1-2.65-3.51l5.42-19a2.75,2.75,0,0,1,2.65-2H67.89a2.75,2.75,0,0,1,2.65,2l5.42,19a2.75,2.75,0,0,1-2.64,3.51ZM71.72,73.5a7,7,0,1,1,7-7A7,7,0,0,1,71.72,73.5Z"/><path class="cls-1" d="M43.73,74a8.4,8.4,0,0,0,7-3.74h-14A8.41,8.41,0,0,0,43.73,74Z"/></g></g></svg>