<svg xmlns="http://www.w3.org/2000/svg" viewBox="0 0 111.8 79.64"><defs><style>.cls-1{fill:#fff;}</style></defs><title>wate-button</title><g id="Layer_2" data-name="Layer 2"><g id="Layer_1-2" data-name="Layer 1"><path class="cls-1" d="M62.71,38.13a3.55,3.55,0,0,0-3.55,3.55,26,26,0,1,1-26-26l.29,0v6a2.27,2.27,0,0,0,3.63,1.82L50,13.78a2.27,2.27,0,0,0,0-3.63L37.05.46a2.27,2.27,0,0,0-3.63,1.81V8.56h-.29A33.13,33.13,0,1,0,66.26,41.68,3.55,3.55,0,0,0,62.71,38.13Z"/><path class="cls-1" d="M78.67,4.83A33.16,33.16,0,0,0,45.55,38a3.55,3.55,0,1,0,7.09,0,26,26,0,1,1,26,26l-.28,0V58a2.27,2.27,0,0,0-3.64-1.81L61.83,65.86a2.27,2.27,0,0,0,0,3.63l12.92,9.69a2.28,2.28,0,0,0,3.64-1.82V71.08h.28a33.13,33.13,0,0,0,0-66.26Z"/></g></g></svg>