<svg xmlns="http://www.w3.org/2000/svg" viewBox="0 0 177.11 144.15"><defs><style>.cls-1{fill:#fff;}</style></defs><title>touch-finger</title><g id="Layer_2" data-name="Layer 2"><g id="Layer_1-2" data-name="Layer 1"><path class="cls-1" d="M67.38,117.77a50.39,50.39,0,1,1,46.31-70.26,1.77,1.77,0,0,1-3.26,1.4A46.86,46.86,0,1,0,73.61,113.8a1.78,1.78,0,0,1,.46,3.53A51.6,51.6,0,0,1,67.38,117.77Z"/><path class="cls-1" d="M67.38,134.77A67.37,67.37,0,1,1,131.8,47.54a1.78,1.78,0,0,1-3.4,1,64.41,64.41,0,0,0-22.75-32.29A63.84,63.84,0,1,0,67.38,131.22a64.83,64.83,0,0,0,13.9-1.52,1.77,1.77,0,1,1,.77,3.46A67.49,67.49,0,0,1,67.38,134.77Z"/><path class="cls-1" d="M64.87,99.07h-.15A31.8,31.8,0,1,1,92,47.27a1.78,1.78,0,1,1-2.75,2.25A28.25,28.25,0,1,0,65,95.53a1.77,1.77,0,0,1-.14,3.54Z"/><path class="cls-1" d="M67.38,117.77a50.39,50.39,0,1,1,46.31-70.26,1.77,1.77,0,0,1-3.26,1.4A46.86,46.86,0,1,0,73.61,113.8a1.78,1.78,0,0,1,.46,3.53A51.6,51.6,0,0,1,67.38,117.77Z"/><rect class="cls-1" x="73.94" y="69.17" width="9.08" height="4.42" transform="translate(-27.48 76.4) rotate(-45)"/><polygon class="cls-1" points="99.7 111.56 96.58 108.44 86.63 118.39 89.75 121.51 89.83 121.44 96.42 128.03 99.56 124.89 92.96 118.3 99.7 111.56"/><polygon class="cls-1" points="125.75 66.78 122.98 69.55 119.85 66.43 113.17 73.12 110.14 76.14 107.02 73.02 99.92 80.12 86.39 66.59 83.25 69.72 112.57 99.05 115.71 95.91 103.04 83.24 110.03 76.25 113.15 79.38 122.87 89.09 126.01 85.95 116.29 76.24 122.61 69.91 135.45 82.75 138.59 79.61 128.87 69.9 131.82 66.95 128.7 63.83 125.75 66.78"/><polygon class="cls-1" points="138.87 66.15 135.75 63.03 131.82 66.95 134.95 70.07 138.57 66.44 161.13 89 164.26 85.86 141.71 63.31 138.87 66.15"/><polygon class="cls-1" points="103.1 108.69 99.5 112.28 102.62 115.41 106.22 111.81 115.85 121.44 118.99 118.3 76.83 76.14 73.69 79.28 103.1 108.69"/><rect class="cls-1" x="108.46" y="122.19" width="4.44" height="8.83" transform="translate(-57.1 115.35) rotate(-45)"/><rect class="cls-1" x="118.48" y="125.01" width="4.44" height="8.83" transform="translate(-56.16 123.26) rotate(-45)"/><rect class="cls-1" x="127.87" y="128.13" width="4.44" height="8.83" transform="translate(-55.62 130.81) rotate(-45)"/><rect class="cls-1" x="162.64" y="88.96" width="4.44" height="14.21" transform="translate(-19.64 144.71) rotate(-45)"/><polygon class="cls-1" points="170.86 111.88 144.85 137.89 137.92 130.96 134.78 134.1 144.84 144.15 146.13 142.85 147.97 141.01 173.98 115 174.85 114.14 177.11 111.87 167.06 101.82 163.93 104.95 170.86 111.88"/><rect class="cls-1" x="100.56" y="122.64" width="4.44" height="4.66" transform="translate(-58.27 109.28) rotate(-45)"/></g></g></svg>